<?xml version="1.0" encoding="UTF-8" standalone="no"?>
<!DOCTYPE svg PUBLIC "-//W3C//DTD SVG 1.1//EN" "http://www.w3.org/Graphics/SVG/1.1/DTD/svg11.dtd">
<svg width="100%" height="100%" viewBox="0 0 4000 4000" version="1.1" xmlns="http://www.w3.org/2000/svg" xmlns:xlink="http://www.w3.org/1999/xlink" xml:space="preserve" xmlns:serif="http://www.serif.com/" style="fill-rule:evenodd;clip-rule:evenodd;stroke-linejoin:round;stroke-miterlimit:2;">
    <g>
        <g transform="matrix(2,0,0,2.00217,-1999.997698,-2003.255438)">
            <path d="M2000,1500C2000,1775.957 2224.041,1999.999 2499.998,2000C2224.402,2000 2000.585,2223.456 1999.999,2498.916C1999.413,2223.456 1775.596,2000 1500,2000C1775.958,2000 2000,1775.958 2000,1500Z"/>
        </g>
        <path d="M3060.268,939.363C3331.892,1210.894 3500,1585.97 3500,2000C3500,2413.843 3332.044,2788.767 3060.637,3060.268C3059.882,3048.097 3040.183,2754.881 2877.369,2479.909C2955.537,2337.417 3000.002,2173.86 3000.002,2000C3000.002,1621.944 2789.756,1292.606 2479.908,1122.631C2754.88,959.817 3048.096,940.118 3060.268,939.363Z"/>
        <path d="M939.732,3060.637C668.108,2789.106 500,2414.03 500,2000C500,1586.157 667.956,1211.233 939.363,939.732C940.118,951.904 959.818,1245.122 1122.633,1520.095C1044.466,1662.586 1000.002,1826.141 1000.002,2000C1000.002,2378.055 1210.248,2707.392 1520.094,2877.367C1245.121,3040.183 951.903,3059.882 939.732,3060.637Z"/>
    </g>
</svg>
